<?xml version="1.0" encoding="UTF-8"?><svg id="Layer_2" xmlns="http://www.w3.org/2000/svg" viewBox="0 0 374.6 468.6"><g id="Layer_1-2"><g><rect x="175.6" y="269.6" width="198" height="198" fill="#fff"/><path d="m372.6,270.6v196h-196v-196h196m2-2h-200v200h200v-200h0Z"/></g><g><rect x="75.6" y="169.6" width="198" height="198" transform="translate(-145.32 285.51) rotate(-60)" fill="#fff"/><path d="m138.73,134.73l169.74,98-98,169.74-169.74-98,98-169.74m-.73-2.73l-100,173.21,173.21,100,100-173.21-173.21-100h0Z"/></g><g><rect x="37.6" y="37.6" width="198" height="198" transform="translate(-50 86.6) rotate(-30)" fill="#fff"/><path d="m172.47,2.73l98,169.74-169.74,98L2.73,100.73,172.47,2.73m.73-2.73L0,100l100,173.21,173.21-100L173.21,0h0Z"/></g><line x1="373.72" y1="269.13" x2="309.89" y2="232.24" fill="none" stroke="#000" stroke-miterlimit="10" stroke-width="2"/><line x1="39.25" y1="304.77" x2="174.79" y2="466.74" fill="none" stroke="#000" stroke-miterlimit="10" stroke-width="2"/><line x1="210.36" y1="403.3" x2="372.81" y2="466.26" fill="none" stroke="#000" stroke-miterlimit="10" stroke-width="2"/><line x1="271.36" y1="173.01" x2="309.49" y2="231.46" fill="none" stroke="#000" stroke-miterlimit="10" stroke-width="2"/><line x1="100.95" y1="271.47" x2="211.04" y2="404.6" fill="none" stroke="#000" stroke-miterlimit="10" stroke-width="2"/><line x1="1.61" y1="100.95" x2="39.5" y2="304.24" fill="none" stroke="#000" stroke-miterlimit="10" stroke-width="2"/></g></svg>